# xmcd CD database file
#
# Track frame offsets:
#	150
#	26927
#	50375
#	71762
#	92263
#	110130
#	131183
#	154964
#	176311
#	190720
#
# Disc length: 2775 seconds
#
# Revision: 0
# Processed by: cddbd v1.5PL3 Copyright (c) Steve Scherf et al.
# Submitted via: CDex 1.50beta10
#
DISCID=880ad50a
DTITLE=Robert Pete Williams - Poor Bob's Blues - CD-A
DYEAR=2004
DGENRE=Blues
TTITLE0=My Mind Wandering Around
TTITLE1=Cane Cut Man
TTITLE2=My Daddy Was A Hoodoo Man
TTITLE3=No More Sweet Potatoes
TTITLE4=Poor Bob's Blues
TTITLE5=Cow's Love Music
TTITLE6=Can't Yo-Yo No More
TTITLE7=Shake, Shake Baby
TTITLE8=Lord, I Done You Wrong
TTITLE9=Been Mistreated So Long
EXTD=YEAR: 2004
EXTT0=
EXTT1=
EXTT2=
EXTT3=
EXTT4=
EXTT5=
EXTT6=
EXTT7=
EXTT8=
EXTT9=
PLAYORDER=
